<svg id="evPhBORWiM51" xmlns="http://www.w3.org/2000/svg" xmlns:xlink="http://www.w3.org/1999/xlink" viewBox="0 0 256 256" shape-rendering="geometricPrecision" text-rendering="geometricPrecision" project-id="c2bae9f00aea4833b61c0ecbb8e23585" export-id="e230ffc160454b26a9465ff9f4f2e34f" cached="false"><rect width="16" height="16" rx="0" ry="0" transform="translate(48 32)"/><rect width="16" height="16" rx="0" ry="0" transform="translate(64 32)"/><rect width="16" height="16" rx="0" ry="0" transform="translate(80 32)"/><rect width="16" height="16" rx="0" ry="0" transform="translate(160 32)"/><rect width="16" height="16" rx="0" ry="0" transform="translate(176 32)"/><rect width="16" height="16" rx="0" ry="0" transform="translate(192 32)"/><rect width="16" height="16" rx="0" ry="0" transform="translate(48 48)"/><rect width="16" height="16" rx="0" ry="0" transform="translate(80 48)"/><rect width="16" height="16" rx="0" ry="0" transform="translate(96 48)"/><rect width="16" height="16" rx="0" ry="0" transform="translate(112 48)"/><rect width="16" height="16" rx="0" ry="0" transform="translate(128 48)"/><rect width="16" height="16" rx="0" ry="0" transform="translate(144 48)"/><rect width="16" height="16" rx="0" ry="0" transform="translate(160 48)"/><rect width="16" height="16" rx="0" ry="0" transform="translate(192 48)"/><rect width="16" height="16" rx="0" ry="0" transform="translate(48 64)"/><rect width="16" height="16" rx="0" ry="0" transform="translate(192 64)"/><rect width="16" height="16" rx="0" ry="0" transform="translate(32 80)"/><rect width="16" height="16" rx="0" ry="0" transform="translate(48 80)"/><rect width="16" height="16" rx="0" ry="0" transform="translate(192 80)"/><rect width="16" height="16" rx="0" ry="0" transform="translate(208 80)"/><rect width="16" height="16" rx="0" ry="0" transform="translate(32 96)"/><rect width="16" height="16" rx="0" ry="0" transform="translate(208 96)"/><rect width="16" height="16" rx="0" ry="0" transform="translate(32 112)"/><rect width="16" height="16" rx="0" ry="0" transform="translate(208 112)"/><rect width="16" height="16" rx="0" ry="0" transform="translate(32 128)"/><rect width="16" height="16" rx="0" ry="0" transform="translate(208 128)"/><rect width="16" height="16" rx="0" ry="0" transform="translate(32 144)"/><rect width="16" height="16" rx="0" ry="0" transform="translate(208 144)"/><rect width="16" height="16" rx="0" ry="0" transform="translate(32 160)"/><rect width="16" height="16" rx="0" ry="0" transform="translate(48 160)"/><rect width="16" height="16" rx="0" ry="0" transform="translate(192 160)"/><rect width="16" height="16" rx="0" ry="0" transform="translate(208 160)"/><rect width="16" height="16" rx="0" ry="0" transform="translate(32 176)"/><rect width="16" height="16" rx="0" ry="0" transform="translate(48 176)"/><rect width="16" height="16" rx="0" ry="0" transform="translate(64 176)"/><rect width="16" height="16" rx="0" ry="0" transform="translate(176 176)"/><rect width="16" height="16" rx="0" ry="0" transform="translate(192 176)"/><rect width="16" height="16" rx="0" ry="0" transform="translate(32 192)"/><rect width="16" height="16" rx="0" ry="0" transform="translate(64 192)"/><rect width="16" height="16" rx="0" ry="0" transform="translate(80 192)"/><rect width="16" height="16" rx="0" ry="0" transform="translate(96 192)"/><rect width="16" height="16" rx="0" ry="0" transform="translate(144 192)"/><rect width="16" height="16" rx="0" ry="0" transform="translate(160 192)"/><rect width="16" height="16" rx="0" ry="0" transform="translate(176 192)"/><rect width="16" height="16" rx="0" ry="0" transform="translate(32 208)"/><rect width="16" height="16" rx="0" ry="0" transform="translate(48 208)"/><rect width="16" height="16" rx="0" ry="0" transform="translate(160 208)"/><rect width="16" height="16" rx="0" ry="0" transform="translate(48 224)"/><rect width="16" height="16" rx="0" ry="0" transform="translate(64 224)"/><rect width="16" height="16" rx="0" ry="0" transform="translate(80 224)"/><rect width="16" height="16" rx="0" ry="0" transform="translate(96 224)"/><rect width="16" height="16" rx="0" ry="0" transform="translate(160 224)"/><rect width="16" height="16" rx="0" ry="0" transform="translate(96 240)"/><rect width="16" height="16" rx="0" ry="0" transform="translate(160 240)"/></svg>
